<svg xmlns="http://www.w3.org/2000/svg" xmlns:xlink="http://www.w3.org/1999/xlink" width="199.288" height="199.288" viewBox="0 0 199.288 199.288">
  <defs>
    <filter id="Ellipse_881" x="0" y="0" width="199.288" height="199.288" filterUnits="userSpaceOnUse">
      <feOffset dy="3" input="SourceAlpha"/>
      <feGaussianBlur stdDeviation="3" result="blur"/>
      <feFlood flood-opacity="0.549"/>
      <feComposite operator="in" in2="blur"/>
      <feComposite in="SourceGraphic"/>
    </filter>
  </defs>
  <g id="Group_410" data-name="Group 410" transform="translate(6.938 3.938)">
    <g id="Group_323" data-name="Group 323" transform="translate(0 0)">
      <g transform="matrix(1, 0, 0, 1, -6.94, -3.94)" filter="url(#Ellipse_881)">
        <circle id="Ellipse_881-2" data-name="Ellipse 881" cx="90.644" cy="90.644" r="90.644" transform="translate(9 6)" fill="#fff"/>
      </g>
      <path id="Path_349" data-name="Path 349" d="M119.363,698.738a92.705,92.705,0,1,1,65.553-27.153A92.1,92.1,0,0,1,119.363,698.738Zm0-181.288a88.581,88.581,0,1,0,88.581,88.581A88.681,88.681,0,0,0,119.363,517.45Z" transform="translate(-26.657 -513.325)" fill="#d40922"/>
    </g>
    <g id="Group_340" data-name="Group 340" transform="translate(21.646 23.239)">
      <g id="Group_324" data-name="Group 324" transform="translate(53.616 87.838)">
        <path id="Path_350" data-name="Path 350" d="M209.107,782.6" transform="translate(-209.107 -782.598)" fill="#464749"/>
      </g>
      <g id="Group_327" data-name="Group 327" transform="translate(45.005 0)">
        <g id="Group_325" data-name="Group 325" transform="translate(20.548 20.818)">
          <path id="Path_351" data-name="Path 351" d="M251.706,620.129a34.073,34.073,0,0,0-13.661,2.844V644.06a17.083,17.083,0,0,1,27.4.106,10.589,10.589,0,0,0,8.506,4.266h11.452a34.22,34.22,0,0,0-33.7-28.3" transform="translate(-238.045 -620.129)" fill="#d40922"/>
        </g>
        <g id="Group_326" data-name="Group 326">
          <path id="Path_352" data-name="Path 352" d="M256.071,630.954A34.207,34.207,0,0,1,222.21,658.9c-6.919-.057-13.429-2.3-16.821-5.663-2.478,2.55-9.678,7.294-17.07,3.713V626.686c-.057-.774-.086-1.547-.086-2.335V569.662a17.1,17.1,0,0,1,17.089,16.386.014.014,0,0,0,.014-.014v38.4A17.275,17.275,0,0,0,222.382,641.8a17.08,17.08,0,0,0,13.593-6.675,10.7,10.7,0,0,1,8.437-4.168Z" transform="translate(-188.233 -569.662)" fill="#464749"/>
        </g>
      </g>
      <g id="Group_339" data-name="Group 339" transform="translate(0 97.88)">
        <g id="Group_328" data-name="Group 328">
          <path id="Path_353" data-name="Path 353" d="M93.654,809.955l-2,1.9a6.178,6.178,0,0,0-4.582-2.152,5.021,5.021,0,0,0-5.091,5.09,5.364,5.364,0,0,0,.651,2.663,4.672,4.672,0,0,0,1.843,1.826,5.359,5.359,0,0,0,2.648.663,5.448,5.448,0,0,0,2.27-.464,8.13,8.13,0,0,0,2.261-1.688l1.935,2.019a10.606,10.606,0,0,1-3.139,2.248,8.565,8.565,0,0,1-3.373.627,7.766,7.766,0,0,1-5.722-2.216,7.673,7.673,0,0,1-2.227-5.682,7.769,7.769,0,0,1,1.014-3.985,7.534,7.534,0,0,1,2.9-2.8,8.19,8.19,0,0,1,4.072-1.06,8.644,8.644,0,0,1,6.533,3.012Z" transform="translate(-79.131 -806.943)" fill="#d40922"/>
        </g>
        <g id="Group_329" data-name="Group 329" transform="translate(17.213 0.377)">
          <path id="Path_354" data-name="Path 354" d="M120.859,807.857h3.023a10,10,0,0,1,3.537.443,3.623,3.623,0,0,1,1.7,1.473,4.513,4.513,0,0,1,.641,2.435,4.152,4.152,0,0,1-.708,2.472,4.294,4.294,0,0,1-2.134,1.5l3.551,6.665h-3.12l-3.371-6.35h-.261v6.35h-2.853Zm2.853,5.859h.894a3.49,3.49,0,0,0,1.874-.358,1.341,1.341,0,0,0,.512-1.186,1.45,1.45,0,0,0-.254-.854,1.408,1.408,0,0,0-.681-.522,5.152,5.152,0,0,0-1.564-.158h-.783Z" transform="translate(-120.859 -807.857)" fill="#d40922"/>
        </g>
        <g id="Group_330" data-name="Group 330" transform="translate(29.136 0.377)">
          <path id="Path_355" data-name="Path 355" d="M149.763,807.857h8.184v2.792H152.6v2.71h5.35V816.1H152.6v3.945h5.35v2.8h-8.184Z" transform="translate(-149.763 -807.857)" fill="#d40922"/>
        </g>
        <g id="Group_331" data-name="Group 331" transform="translate(39.99 0.377)">
          <path id="Path_356" data-name="Path 356" d="M176.075,807.857h3.381a11.146,11.146,0,0,1,4.856.81,6.329,6.329,0,0,1,2.618,2.635,9.233,9.233,0,0,1,.452,7.444,6.6,6.6,0,0,1-1.588,2.41,5.6,5.6,0,0,1-2.194,1.325,15.6,15.6,0,0,1-4.094.367h-3.431Zm2.834,2.752v9.457h1.325a6.626,6.626,0,0,0,2.838-.449,3.4,3.4,0,0,0,1.443-1.511,5.545,5.545,0,0,0,.559-2.612,4.965,4.965,0,0,0-1.335-3.7,5.349,5.349,0,0,0-3.862-1.183Z" transform="translate(-176.075 -807.857)" fill="#d40922"/>
        </g>
        <g id="Group_332" data-name="Group 332" transform="translate(53.849)">
          <path id="Path_357" data-name="Path 357" d="M217.495,806.943a7.443,7.443,0,0,1,5.471,2.3,7.663,7.663,0,0,1,2.29,5.615A7.576,7.576,0,0,1,223,820.415a7.825,7.825,0,0,1-11.09-.062,7.877,7.877,0,0,1,5.588-13.41Zm-.03,2.792a4.706,4.706,0,0,0-3.5,1.447,5.038,5.038,0,0,0-1.419,3.68,4.792,4.792,0,0,0,1.786,3.933,4.892,4.892,0,0,0,3.182,1.131,4.646,4.646,0,0,0,3.458-1.467,5.287,5.287,0,0,0-.01-7.241A4.69,4.69,0,0,0,217.464,809.735Z" transform="translate(-209.673 -806.943)" fill="#d40922"/>
        </g>
        <g id="Group_333" data-name="Group 333" transform="translate(72.276 0.377)">
          <path id="Path_358" data-name="Path 358" d="M254.342,807.857H257.3a7.021,7.021,0,0,1,2.741.422,3.353,3.353,0,0,1,1.513,1.3,3.563,3.563,0,0,1,.556,1.946,3.493,3.493,0,0,1-.487,1.819,3.6,3.6,0,0,1-1.43,1.33,5.543,5.543,0,0,1,1.8.933,3.742,3.742,0,0,1,.98,1.295,3.874,3.874,0,0,1,.351,1.645A4.043,4.043,0,0,1,262,821.6a4.944,4.944,0,0,1-3.541,1.249h-4.117Zm1.467,1.467v4.8h.858a6.708,6.708,0,0,0,2.3-.29,2.476,2.476,0,0,0,1.164-.917,2.407,2.407,0,0,0,.429-1.391,1.971,1.971,0,0,0-.72-1.615,3.626,3.626,0,0,0-2.293-.586Zm0,6.308v5.748h1.858a6.659,6.659,0,0,0,2.409-.322,2.736,2.736,0,0,0,1.23-1,2.619,2.619,0,0,0-.189-3.22,3.353,3.353,0,0,0-1.8-1.019,13.122,13.122,0,0,0-2.665-.184Z" transform="translate(-254.342 -807.857)" fill="#464749"/>
        </g>
        <g id="Group_334" data-name="Group 334" transform="translate(83.557)">
          <path id="Path_359" data-name="Path 359" d="M289.49,806.943a7.777,7.777,0,0,1,5.7,2.273,7.88,7.88,0,0,1-5.578,13.472,7.676,7.676,0,0,1-5.628-2.283,7.5,7.5,0,0,1-2.3-5.523,7.993,7.993,0,0,1,1.046-4.005,7.719,7.719,0,0,1,6.756-3.933Zm.067,1.457a6.4,6.4,0,0,0-5.482,3.2,6.5,6.5,0,0,0-.837,3.274,6.308,6.308,0,0,0,6.319,6.355,6.416,6.416,0,0,0,3.231-.847,6.065,6.065,0,0,0,2.317-2.315,6.506,6.506,0,0,0,.832-3.264,6.346,6.346,0,0,0-.832-3.228,6.215,6.215,0,0,0-2.343-2.31A6.342,6.342,0,0,0,289.557,808.4Z" transform="translate(-281.689 -806.943)" fill="#464749"/>
        </g>
        <g id="Group_335" data-name="Group 335" transform="translate(102.256)">
          <path id="Path_360" data-name="Path 360" d="M334.821,806.943a7.776,7.776,0,0,1,5.7,2.273,7.88,7.88,0,0,1-5.578,13.472,7.676,7.676,0,0,1-5.629-2.283,7.5,7.5,0,0,1-2.295-5.523,7.993,7.993,0,0,1,1.045-4.005,7.719,7.719,0,0,1,6.756-3.933Zm.066,1.457a6.4,6.4,0,0,0-5.482,3.2,6.5,6.5,0,0,0-.837,3.274,6.308,6.308,0,0,0,6.319,6.355,6.415,6.415,0,0,0,3.231-.847,6.063,6.063,0,0,0,2.317-2.315,6.507,6.507,0,0,0,.832-3.264,6.347,6.347,0,0,0-.832-3.228,6.213,6.213,0,0,0-2.343-2.31A6.341,6.341,0,0,0,334.888,808.4Z" transform="translate(-327.02 -806.943)" fill="#464749"/>
        </g>
        <g id="Group_336" data-name="Group 336" transform="translate(121.531 0.377)">
          <path id="Path_361" data-name="Path 361" d="M373.747,807.857h1.529v5.625l5.992-5.625h2.013l-7.2,6.725,7.76,8.265h-2l-6.57-6.983v6.983h-1.529Z" transform="translate(-373.747 -807.857)" fill="#464749"/>
        </g>
        <g id="Group_337" data-name="Group 337" transform="translate(133.347)">
          <path id="Path_362" data-name="Path 362" d="M402.39,819.519l1.274-.764q1.346,2.477,3.109,2.477a2.984,2.984,0,0,0,1.417-.352,2.479,2.479,0,0,0,1.008-.943,2.44,2.44,0,0,0,.347-1.253,2.551,2.551,0,0,0-.509-1.478,12.248,12.248,0,0,0-2.568-2.4,13.088,13.088,0,0,1-2.334-2.048,3.751,3.751,0,0,1-.794-2.293,3.479,3.479,0,0,1,.469-1.784,3.338,3.338,0,0,1,1.32-1.268,3.8,3.8,0,0,1,1.849-.464,3.943,3.943,0,0,1,1.982.524,6.786,6.786,0,0,1,1.951,1.932l-1.223.927a5.86,5.86,0,0,0-1.442-1.477,2.483,2.483,0,0,0-1.3-.357,2.059,2.059,0,0,0-1.483.551,1.8,1.8,0,0,0-.576,1.355,2.308,2.308,0,0,0,.2.948,3.509,3.509,0,0,0,.744,1q.3.286,1.936,1.5a10.884,10.884,0,0,1,2.67,2.558,4.117,4.117,0,0,1,.724,2.252,3.819,3.819,0,0,1-1.238,2.833,4.164,4.164,0,0,1-3.012,1.2,4.417,4.417,0,0,1-2.476-.729A6.666,6.666,0,0,1,402.39,819.519Z" transform="translate(-402.39 -806.943)" fill="#464749"/>
        </g>
        <g id="Group_338" data-name="Group 338" transform="translate(97.4 2.001)">
          <path id="Path_363" data-name="Path 363" d="M321.276,814.894c-2.963-2.589-4.89-.161-4.979-.071l-1.049-1.544a4.856,4.856,0,0,1,6.888-.06Z" transform="translate(-315.248 -811.793)" fill="#464749"/>
        </g>
      </g>
    </g>
  </g>
</svg>
