<svg xmlns="http://www.w3.org/2000/svg" width="290.05" height="379.086" viewBox="0 0 290.05 379.086">
  <g id="Group_318" data-name="Group 318" transform="translate(-464 -1609)">
    <g id="Group_317" data-name="Group 317" transform="translate(468.278 1609)">
      <g id="Group_288" data-name="Group 288" transform="translate(0 3.992)">
        <path id="Path_254" data-name="Path 254" d="M25.413,89.888c-1.184-2.747-2.059-21.8.017-23.88,1.312-1.312,6.058.357,7.32,2.705,2.133,3.969.508,7.276,2.141,11.58,1.566,4.129,4.216,3.193,5.523-1.295,0,0,.315-5.512-.108-7.287-.713-2.982-5.391-22.872-7.507-32.126-1.868-8.166,3.659-11.323,5.4-9.293,3.719,4.335,13.356,38.816,13.356,38.816l-1.7-9.782c0-3.511,9.121-1.781,10.224.657L62.7,69.108a75.653,75.653,0,0,1-1.044-8.681c0-1.492,6.969.121,8.761,2.584a63.689,63.689,0,0,1,3.426,6.1s-1.72-5.495-1.487-5.854c.533-.823,6.2,2.059,8.035,4.763,5.951,8.765,4.247,18.6,2.721,29.191a28.8,28.8,0,0,1-7.416,15.274,4.53,4.53,0,0,1-3.313,1.439h-23.3a5.153,5.153,0,0,1-3.125-1.249C37.087,105.785,29.723,99.892,25.413,89.888Z" transform="translate(-23.653 -21.003)" fill="#58595b"/>
        <path id="Path_255" data-name="Path 255" d="M26.622,36.72a10.308,10.308,0,1,1,17.913,6.934q.5,1.435,1.008,2.938a13.107,13.107,0,1,0-12.393,2.687c-.268-1.158-.526-2.272-.769-3.323A10.308,10.308,0,0,1,26.622,36.72Z" transform="translate(-23.81 -23.6)" fill="#58595b"/>
      </g>
      <g id="Group_291" data-name="Group 291" transform="translate(104.107 0)">
        <path id="Path_265" data-name="Path 265" d="M103.057,37.4a7.536,7.536,0,0,1-1.331-4.263A7.668,7.668,0,1,1,116.545,35.9a38.015,38.015,0,0,0-1.978-4.208,5.279,5.279,0,0,0-5.173-3.962,5.417,5.417,0,0,0-5.412,5.412c0,.073.006.145.013.217A11.216,11.216,0,0,0,103.057,37.4Z" transform="translate(-95.063 -18.811)" fill="#58595b"/>
        <path id="Path_266" data-name="Path 266" d="M106.529,48.6a14.324,14.324,0,1,1,14.809-3.167c-.284-.819-.565-1.62-.844-2.4a12.066,12.066,0,1,0-21.182-7.9A12.161,12.161,0,0,0,105.9,45.871Z" transform="translate(-97.054 -20.801)" fill="#58595b"/>
        <path id="Path_267" data-name="Path 267" d="M100.02,89.888c-1.184-2.747-2.059-21.8.017-23.88,1.312-1.312,6.06.357,7.32,2.705,2.133,3.969.508,7.276,2.141,11.58,1.566,4.129,4.216,3.193,5.523-1.295,0,0,.315-5.512-.108-7.287-.713-2.982-5.391-22.872-7.507-32.126-1.868-8.166,3.659-11.323,5.4-9.293,3.719,4.335,13.356,38.816,13.356,38.816l-1.7-9.782c0-3.511,9.121-1.781,10.224.657l2.618,9.124a75.653,75.653,0,0,1-1.044-8.681c0-1.492,6.969.121,8.761,2.584a63.687,63.687,0,0,1,3.426,6.1s-1.72-5.495-1.487-5.854c.533-.823,6.2,2.059,8.035,4.763,5.951,8.765,4.246,18.6,2.721,29.191a28.809,28.809,0,0,1-7.414,15.274,4.536,4.536,0,0,1-3.314,1.439h-23.3a5.16,5.16,0,0,1-3.126-1.249C111.694,105.785,104.33,99.892,100.02,89.888Z" transform="translate(-96.316 -17.012)" fill="#58595b"/>
      </g>
      <g id="Group_314" data-name="Group 314" transform="translate(210.028 3.992)">
        <path id="Path_277" data-name="Path 277" d="M173.263,89.888c-1.184-2.747-2.059-21.8.017-23.88,1.312-1.312,6.06.357,7.32,2.705,2.133,3.969.508,7.276,2.141,11.58,1.566,4.129,4.216,3.193,5.523-1.295,0,0,.317-5.512-.108-7.287-.713-2.982-5.391-22.872-7.507-32.126-1.868-8.166,3.659-11.323,5.4-9.293,3.719,4.335,13.357,38.816,13.357,38.816l-1.7-9.782c0-3.511,9.121-1.781,10.224.657l2.618,9.124a75.654,75.654,0,0,1-1.044-8.681c0-1.492,6.969.121,8.761,2.584a63.686,63.686,0,0,1,3.426,6.1s-1.72-5.495-1.487-5.854c.533-.823,6.2,2.059,8.035,4.763,5.951,8.765,4.247,18.6,2.721,29.191a28.8,28.8,0,0,1-7.414,15.274,4.535,4.535,0,0,1-3.314,1.439h-23.3a5.153,5.153,0,0,1-3.125-1.249C184.937,105.785,177.573,99.892,173.263,89.888Z" transform="translate(-170.99 -21.003)" fill="#58595b"/>
        <path id="Path_278" data-name="Path 278" d="M180.884,33.037a5.266,5.266,0,0,1,3.945-2.152,3.16,3.16,0,0,1,2.446,1.088c1.516,1.766,3.825,7.787,6.119,14.619A13.106,13.106,0,1,0,181,49.279c-.589-2.541-1.131-4.882-1.566-6.784C178.254,37.329,179.836,34.352,180.884,33.037Z" transform="translate(-171.661 -23.6)" fill="#58595b"/>
      </g>
      <text id="Single_Tap" data-name="Single Tap" transform="translate(23.243 113.681)" fill="#58595b" font-size="10" font-family="SegoeUI, Segoe UI"><tspan x="-22.41" y="0">Single Tap</tspan></text>
      <text id="Double_Tap" data-name="Double Tap" transform="translate(128.923 113.681)" fill="#58595b" font-size="10" font-family="SegoeUI, Segoe UI"><tspan x="-24.973" y="0">Double Tap</tspan></text>
      <text id="Press_Hold" data-name="Press &amp; Hold" transform="translate(235.787 113.681)" fill="#58595b" font-size="10" font-family="SegoeUI, Segoe UI"><tspan x="-28.706" y="0">Press &amp; Hold</tspan></text>
    </g>
    <g id="Group_316" data-name="Group 316" transform="translate(465.243 1744.842)">
      <g id="Group_297" data-name="Group 297" transform="translate(1.609 4.034)">
        <path id="Path_291" data-name="Path 291" d="M22.483,185.96h2.531l2.234-28.078h1.638L31.12,185.96h2.53l-5.584,8.125Z" transform="translate(-22.483 -157.883)" fill="#58595b"/>
        <path id="Path_292" data-name="Path 292" d="M26.74,224.312c-1.184-2.745-2.059-21.8.017-23.879,1.313-1.313,6.06.357,7.322,2.7,2.132,3.969.506,7.277,2.139,11.58,1.566,4.13,4.216,3.194,5.525-1.294,0,0,.315-5.513-.11-7.287-.713-2.982-5.391-22.873-7.507-32.126-1.867-8.167,3.661-11.325,5.4-9.294,3.719,4.335,13.357,38.818,13.357,38.818l-1.7-9.782c0-3.513,9.121-1.781,10.224.657l2.617,9.124a75.8,75.8,0,0,1-1.042-8.681c0-1.493,6.968.121,8.761,2.584a63.728,63.728,0,0,1,3.424,6.1s-1.72-5.495-1.486-5.856c.533-.823,6.2,2.059,8.033,4.765,5.951,8.764,4.247,18.6,2.721,29.191a28.8,28.8,0,0,1-7.414,15.274,4.536,4.536,0,0,1-3.313,1.438h-23.3a5.153,5.153,0,0,1-3.125-1.249C38.414,240.21,31.05,234.317,26.74,224.312Z" transform="translate(-21.195 -155.226)" fill="#58595b"/>
      </g>
      <g id="Group_300" data-name="Group 300" transform="translate(108.568 0)">
        <path id="Path_302" data-name="Path 302" d="M100.89,191.256l-2.234-28.079H96.125l5.584-8.124,5.584,8.124h-2.531l-2.234,28.079Z" transform="translate(-96.125 -155.054)" fill="#58595b"/>
        <path id="Path_303" data-name="Path 303" d="M100.948,224.312c-1.184-2.745-2.058-21.8.019-23.879,1.312-1.313,6.058.357,7.32,2.7,2.132,3.969.506,7.277,2.139,11.58,1.566,4.13,4.216,3.194,5.525-1.294,0,0,.315-5.513-.11-7.287-.713-2.982-5.391-22.873-7.507-32.126-1.867-8.167,3.661-11.325,5.4-9.294,3.719,4.335,13.357,38.818,13.357,38.818l-1.7-9.782c0-3.513,9.121-1.781,10.224.657l2.617,9.124a75.8,75.8,0,0,1-1.042-8.681c0-1.493,6.968.121,8.761,2.584a63.4,63.4,0,0,1,3.424,6.1s-1.72-5.495-1.486-5.856c.533-.823,6.2,2.059,8.033,4.765,5.951,8.764,4.247,18.6,2.721,29.191a28.8,28.8,0,0,1-7.414,15.274,4.534,4.534,0,0,1-3.313,1.438h-23.3a5.153,5.153,0,0,1-3.125-1.249C112.622,240.21,105.259,234.317,100.948,224.312Z" transform="translate(-94.596 -151.191)" fill="#58595b"/>
      </g>
      <g id="Group_309" data-name="Group 309" transform="translate(211.249 0.097)">
        <path id="Path_338" data-name="Path 338" d="M181.648,307.913l.058.13c-.11.057-.218.113-.332.174-5.87,3.119-9.67,6.721-12.393,12.768-2.714,6.031-2.9,11.259-1.339,17.744.03.125.06.244.09.364l-.136.043-1.311.406,5.127,3.126,2.456-5.479-1.311.406-.207.064c-.039-.1-.077-.2-.116-.3-1.855-4.894-2.142-10.06.033-14.893,2.213-4.919,6.315-8.073,11.125-9.9.1-.04.2-.077.3-.113l.09.2.565,1.251,2.473-5.472-5.74-1.764Z" transform="translate(-166.286 -291.631)" fill="#58595b"/>
        <path id="Path_339" data-name="Path 339" d="M187.327,364.83c-9.324-7.4-16.146-6.52-18.567-9-1.392-1.425-.312-5.319,4.176-6.854,4.328-1.479,7.467-.2,13.129,1.064,6.02,1.348,10.752,3.1,11.5.595,0,0,.315-7.27-.11-9.046-.713-2.982-7.938-22.869-10.054-32.123-1.868-8.166,2.952-10.617,4.695-8.585,3.719,4.334,16.611,38.106,16.611,38.106s-5.318-24.859-7.064-33.229c-1.676-8.033,4.6-11.252,5.429-8.87,3.433,9.867,12.777,42.1,12.777,42.1s-3.993-27.051-4.459-31.788c-.592-6.011,3.942-9.748,5.733-7.286,1.226,1.686,9.869,39.074,9.869,39.074s-2.158-19.747-2.339-25.006c-.16-4.6,4.089-9.237,5.508-5.486,1.161,3.069,6.331,34.933,6.938,37.843,1.353,6.486.215,13.435-.839,20.749a28.8,28.8,0,0,1-7.414,15.274,4.538,4.538,0,0,1-3.313,1.439h-23.3a5.153,5.153,0,0,1-3.125-1.249C200.856,380.8,197.359,372.79,187.327,364.83Z" transform="translate(-165.474 -296.122)" fill="#58595b"/>
      </g>
      <text id="Swipe_Down" data-name="Swipe Down" transform="translate(27 111.894)" fill="#58595b" font-size="10" font-family="SegoeUI, Segoe UI"><tspan x="-27.217" y="0">Swipe Down</tspan></text>
      <text id="Swipe_Up" data-name="Swipe Up" transform="translate(135.273 111.894)" fill="#58595b" font-size="10" font-family="SegoeUI, Segoe UI"><tspan x="-20.713" y="0">Swipe Up</tspan></text>
      <text id="Zoom_In" data-name="Zoom In" transform="translate(244.51 111.894)" fill="#58595b" font-size="10" font-family="SegoeUI, Segoe UI"><tspan x="-18.547" y="0">Zoom In</tspan></text>
    </g>
    <g id="Group_315" data-name="Group 315" transform="translate(464 1879.191)">
      <g id="Group_303" data-name="Group 303" transform="translate(0 5.312)">
        <path id="Path_311" data-name="Path 311" d="M38.523,363.609c-9.324-7.4-16.147-6.519-18.565-9-1.393-1.425-.314-5.319,4.176-6.854,4.327-1.479,7.466-.2,13.127,1.064,6.021,1.348,10.753,3.1,11.5.595,0,0,.315-7.27-.11-9.046-.713-2.982-7.938-22.869-10.054-32.123-1.868-8.166,2.953-10.617,4.695-8.585C47.012,304,59.9,337.768,59.9,337.768l-1.7-9.782c0-3.513,9.121-1.781,10.224.657l2.617,9.124A75.75,75.75,0,0,1,70,329.087c0-1.492,6.968.121,8.761,2.584a63.693,63.693,0,0,1,3.426,6.1s-1.721-5.495-1.487-5.854c.533-.824,6.2,2.059,8.033,4.763,5.953,8.765,4.247,18.6,2.722,29.191a28.808,28.808,0,0,1-7.416,15.274,4.53,4.53,0,0,1-3.313,1.439h-23.3a5.153,5.153,0,0,1-3.125-1.249C52.054,379.585,48.558,371.57,38.523,363.609Z" transform="translate(-19.389 -298.985)" fill="#58595b"/>
        <path id="Path_312" data-name="Path 312" d="M45.245,300.414c-.128.017-.25.036-.372.054l-.029-.138-.278-1.345-3.607,4.8,5.217,2.972-.278-1.343-.044-.211c.1-.029.2-.058.311-.087,5.051-1.373,10.221-1.161,14.82,1.47l1.79-3.129C57.034,300.174,51.848,299.483,45.245,300.414Z" transform="translate(-10.197 -298.985)" fill="#58595b"/>
        <path id="Path_313" data-name="Path 313" d="M21.094,316.347c-.066.111-.125.218-.187.325l-.127-.063L19.551,316l1.55,5.8,5.56-2.268-1.229-.61-.194-.1c.041-.1.081-.2.125-.3,2.036-4.82,5.4-8.756,10.305-10.75l-1.356-3.34C28.185,306.925,24.44,310.577,21.094,316.347Z" transform="translate(-19.32 -296.662)" fill="#58595b"/>
      </g>
      <g id="Group_306" data-name="Group 306" transform="translate(105.533 5.313)">
        <path id="Path_324" data-name="Path 324" d="M113.418,363.609c-9.324-7.4-16.145-6.519-18.565-9-1.393-1.425-.314-5.319,4.176-6.854,4.327-1.479,7.466-.2,13.127,1.064,6.021,1.348,10.753,3.1,11.5.595,0,0,.315-7.27-.11-9.046-.713-2.982-7.938-22.869-10.054-32.123-1.868-8.166,2.953-10.617,4.695-8.585C121.907,304,134.8,337.768,134.8,337.768l-1.7-9.782c0-3.513,9.121-1.781,10.224.657l2.617,9.124a75.753,75.753,0,0,1-1.042-8.681c0-1.492,6.968.121,8.761,2.584a63.693,63.693,0,0,1,3.426,6.1s-1.72-5.495-1.487-5.854c.533-.824,6.2,2.059,8.033,4.763,5.953,8.765,4.247,18.6,2.722,29.191a28.8,28.8,0,0,1-7.416,15.274,4.53,4.53,0,0,1-3.313,1.439h-23.3a5.153,5.153,0,0,1-3.125-1.249C126.949,379.585,123.453,371.57,113.418,363.609Z" transform="translate(-91.517 -298.985)" fill="#58595b"/>
        <path id="Path_325" data-name="Path 325" d="M132.958,300.649c.123.04.24.08.357.12l.053-.133.509-1.274,2.71,5.358-5.657,2.014.509-1.275.081-.2c-.1-.047-.191-.093-.292-.14-4.732-2.238-9.857-2.934-14.849-1.149l-1.214-3.394C121.392,298.35,126.619,298.577,132.958,300.649Z" transform="translate(-82.62 -298.979)" fill="#58595b"/>
        <path id="Path_326" data-name="Path 326" d="M105.055,304.855c.114-.057.225-.111.337-.165l-.056-.131L104.8,303.3,110.5,305.2l-2.611,5.406-.533-1.264-.083-.2c-.1.034-.2.068-.305.106-4.939,1.734-9.076,4.84-11.373,9.616l-3.247-1.562C95.209,311.345,99.088,307.834,105.055,304.855Z" transform="translate(-92.344 -297.149)" fill="#58595b"/>
      </g>
      <g id="Group_313" data-name="Group 313" transform="translate(213.918 0)">
        <g id="Group_312" data-name="Group 312" transform="translate(9.876)">
          <path id="Path_346" data-name="Path 346" d="M262.77,373.187c-5.329-5.595-8.115-10.027-9.81-14.13-1.142-2.764-6.872-18.749-5.6-20.021.87-.87,5.107-1.1,7.256.481,2.948,2.161,2.72,6.609,5.2,10.485,2.518,3.932,8.738,3.732,10.047-.756,0,0,.315-5.512-.11-7.287a89.672,89.672,0,0,0-4.459-11.516c-.464-.851-7.188-8.416-8.46-10.143-2.5-3.4-2.827-7.335-1.158-9.427,1.8-2.253,12.991,7.192,16.055,10.191,2.941,2.878,9.274,18.291,9.274,18.291l-2.443-19.524L272.6,306.648c-1.717-4.394-.153-9.977,2.286-11.079s3.756.925,4.859,3.364l8.406,19.777,4,20.646-.833-15.663-2.658-14c-.6-4.046,1.495-8.424,4.1-9.039,3.016-.712,4.23,4.545,4.833,7.152L301,323.384l2.295,15.971V330.11l-1.02-9.866c0-3.457,1.771-8.155,4.415-8.568s4.24,4.559,4.653,7.2l1.64,10.746v9.5s1.258,16.676-.419,28.33a28.8,28.8,0,0,1-7.416,15.274,4.53,4.53,0,0,1-3.313,1.439h-23.3a5.152,5.152,0,0,1-3.125-1.249C273.156,381.174,266.279,376.873,262.77,373.187Z" transform="translate(-247.175 -295.26)" fill="#58595b"/>
        </g>
        <path id="Path_347" data-name="Path 347" d="M245.621,309.893c-.078.1-.151.2-.224.3l-.12-.078-1.147-.753.846,5.944,5.79-1.587-1.147-.753-.181-.118.16-.281c2.6-4.542,6.4-8.048,11.519-9.439l-.947-3.478C253.789,301.389,249.633,304.565,245.621,309.893Z" transform="translate(-238.596 -293.389)" fill="#58595b"/>
        <path id="Path_348" data-name="Path 348" d="M246.354,322.524c.03-.107.061-.208.091-.309l.211.047,1.339.3L245.11,317.3l-4.86,3.524,1.338.3.14.031c-.021.121-.041.242-.061.371-1.04,6.565-.446,11.768,2.748,17.58l3.157-1.737C244.975,332.641,244.919,327.467,246.354,322.524Z" transform="translate(-240.25 -285.87)" fill="#58595b"/>
      </g>
      <text id="Zoom_Out" data-name="Zoom Out" transform="translate(246.901 105.895)" fill="#58595b" font-size="10" font-family="SegoeUI, Segoe UI"><tspan x="-22.681" y="0">Zoom Out</tspan></text>
      <text id="Rotate_Right" data-name="Rotate Right" transform="translate(135.385 105.895)" fill="#58595b" font-size="10" font-family="SegoeUI, Segoe UI"><tspan x="-27.324" y="0">Rotate Right</tspan></text>
      <text id="Rotate_Left" data-name="Rotate Left" transform="translate(29.704 105.895)" fill="#58595b" font-size="10" font-family="SegoeUI, Segoe UI"><tspan x="-23.972" y="0">Rotate Left</tspan></text>
    </g>
  </g>
</svg>
