<svg xmlns="http://www.w3.org/2000/svg" xmlns:xlink="http://www.w3.org/1999/xlink" width="319.301" height="269.254" viewBox="0 0 319.301 269.254">
  <defs>
    <filter id="Rectangle_136" x="0" y="0" width="319.301" height="269.254" filterUnits="userSpaceOnUse">
      <feOffset dy="3" input="SourceAlpha"/>
      <feGaussianBlur stdDeviation="3" result="blur"/>
      <feFlood flood-opacity="0.549"/>
      <feComposite operator="in" in2="blur"/>
      <feComposite in="SourceGraphic"/>
    </filter>
    <linearGradient id="linear-gradient" y1="0.5" x2="1" y2="0.5" gradientUnits="objectBoundingBox">
      <stop offset="0" stop-color="#fff"/>
      <stop offset="1" stop-color="#d1d3d4"/>
    </linearGradient>
    <filter id="Ellipse_32" x="196.977" y="197.717" width="49.03" height="49.03" filterUnits="userSpaceOnUse">
      <feOffset dy="3" input="SourceAlpha"/>
      <feGaussianBlur stdDeviation="3" result="blur-2"/>
      <feFlood flood-opacity="0.549"/>
      <feComposite operator="in" in2="blur-2"/>
      <feComposite in="SourceGraphic"/>
    </filter>
    <linearGradient id="linear-gradient-2" y1="0.5" x2="1" y2="0.5" gradientUnits="objectBoundingBox">
      <stop offset="0" stop-color="#d1d3d4"/>
      <stop offset="1" stop-color="#fff"/>
    </linearGradient>
    <linearGradient id="linear-gradient-3" y1="0.5" x2="1" y2="0.5" gradientUnits="objectBoundingBox">
      <stop offset="0" stop-color="#df1a22"/>
      <stop offset="1" stop-color="#c02632"/>
    </linearGradient>
    <linearGradient id="linear-gradient-4" y1="0.5" x2="1" y2="0.5" gradientUnits="objectBoundingBox">
      <stop offset="0" stop-color="#de404c"/>
      <stop offset="1" stop-color="#e56b5a"/>
    </linearGradient>
    <filter id="Ellipse_32-2" x="238.853" y="197.717" width="49.03" height="49.03" filterUnits="userSpaceOnUse">
      <feOffset dy="3" input="SourceAlpha"/>
      <feGaussianBlur stdDeviation="3" result="blur-3"/>
      <feFlood flood-opacity="0.549"/>
      <feComposite operator="in" in2="blur-3"/>
      <feComposite in="SourceGraphic"/>
    </filter>
    <linearGradient id="linear-gradient-9" x1="1" y1="0.5" x2="1" y2="0.5" gradientUnits="objectBoundingBox">
      <stop offset="0" stop-color="#58595b"/>
      <stop offset="1" stop-color="#58595b"/>
    </linearGradient>
  </defs>
  <g id="Group_608" data-name="Group 608" transform="translate(-795.645 -543.365)">
    <g id="Group_472" data-name="Group 472" transform="translate(804.645 549.365)">
      <text id="MY_ACCOUNTS_List..." data-name="MY ACCOUNTS
List..." transform="translate(22.47 54.18)" fill="#58595b" font-size="16" font-family="SegoeUI, Segoe UI"><tspan x="0" y="0">MY ACCOUNTS</tspan><tspan font-size="13"><tspan x="0" y="21">List...</tspan></tspan></text>
      <g transform="matrix(1, 0, 0, 1, -9, -6)" filter="url(#Rectangle_136)">
        <rect id="Rectangle_136-2" data-name="Rectangle 136" width="301.301" height="251.254" transform="translate(9 6)" fill="#fff"/>
      </g>
      <path id="Path_435" data-name="Path 435" d="M253.033,130.2H61.087a23.045,23.045,0,1,1,0-46.091H253.033a23.045,23.045,0,0,1,0,46.091ZM61.087,86.7a20.454,20.454,0,1,0,0,40.907H253.033a20.454,20.454,0,0,0,0-40.907Z" transform="translate(-6.374 -6.485)" fill="#58595b"/>
      <path id="Path_434" data-name="Path 434" d="M253.033,130.2H61.087a23.045,23.045,0,1,1,0-46.091H253.033a23.045,23.045,0,0,1,0,46.091ZM61.087,86.7a20.454,20.454,0,1,0,0,40.907H253.033a20.454,20.454,0,0,0,0-40.907Z" transform="translate(-6.374 -66.745)" fill="#58595b"/>
      <path id="Path_436" data-name="Path 436" d="M253.033,141.395H61.087a23.045,23.045,0,1,1,0-46.091H253.033a23.045,23.045,0,0,1,0,46.091ZM61.087,97.9a20.454,20.454,0,1,0,0,40.907H253.033a20.454,20.454,0,1,0,0-40.907Z" transform="translate(-6.374 40.537)" fill="#58595b"/>
      <g id="Group_456" data-name="Group 456" transform="translate(84.182 154.568)">
        <circle id="Ellipse_1" data-name="Ellipse 1" cx="3.888" cy="3.888" r="3.888" fill="#de252f"/>
        <circle id="Ellipse_2" data-name="Ellipse 2" cx="3.888" cy="3.888" r="3.888" transform="translate(12.528)" fill="#de252f"/>
        <circle id="Ellipse_3" data-name="Ellipse 3" cx="3.888" cy="3.888" r="3.888" transform="translate(25.054)" fill="#de252f"/>
        <circle id="Ellipse_4" data-name="Ellipse 4" cx="3.888" cy="3.888" r="3.888" transform="translate(37.58)" fill="#de252f"/>
        <circle id="Ellipse_5" data-name="Ellipse 5" cx="3.888" cy="3.888" r="3.888" transform="translate(50.107)" fill="#de252f"/>
        <circle id="Ellipse_6" data-name="Ellipse 6" cx="3.888" cy="3.888" r="3.888" transform="translate(62.633)" fill="#de252f"/>
        <circle id="Ellipse_7" data-name="Ellipse 7" cx="3.888" cy="3.888" r="3.888" transform="translate(75.159)" fill="#de252f"/>
        <circle id="Ellipse_8" data-name="Ellipse 8" cx="3.888" cy="3.888" r="3.888" transform="translate(87.687)" fill="#de252f"/>
        <circle id="Ellipse_9" data-name="Ellipse 9" cx="3.888" cy="3.888" r="3.888" transform="translate(100.213)" fill="#de252f"/>
      </g>
      <g id="Group_457" data-name="Group 457" transform="translate(51.032 146.751)">
        <path id="Path_7" data-name="Path 7" d="M53.638,112.43H44.805a3.033,3.033,0,0,1-3.032-3.032v-7.35a3.037,3.037,0,0,1,3.032-3.037h8.832a3.042,3.042,0,0,1,3.037,3.037v7.35A3.037,3.037,0,0,1,53.638,112.43ZM44.805,101.6a.445.445,0,0,0-.441.446v7.35a.44.44,0,0,0,.441.441h8.832a.441.441,0,0,0,.446-.441v-7.35a.446.446,0,0,0-.446-.446Z" transform="translate(-41.773 -91.142)" fill="#58595b"/>
        <path id="Path_8" data-name="Path 8" d="M44.573,106.656H41.981v-2.794a6.37,6.37,0,1,1,12.741,0H52.13a3.779,3.779,0,1,0-7.557,0Z" transform="translate(-40.903 -97.492)" fill="#58595b"/>
      </g>
      <text id="Email" transform="translate(84.181 105.529)" fill="#58595b" font-size="14" font-family="SegoeUI, Segoe UI"><tspan x="0" y="0">Email</tspan></text>
      <text id="Type_here_to_search_eStore..." data-name="Type here to search eStore..." transform="translate(49.025 44.641)" fill="#58595b" font-size="14" font-family="SegoeUI, Segoe UI"><tspan x="0" y="0">Type here to search eStore...</tspan></text>
      <g id="Group_458" data-name="Group 458" transform="translate(196.977 197.717)">
        <circle id="Ellipse_30" data-name="Ellipse 30" cx="15.33" cy="15.33" r="15.33" transform="translate(0.406 0.406)" fill="#86888b" opacity="0.952"/>
        <circle id="Ellipse_31" data-name="Ellipse 31" cx="15.321" cy="15.321" r="15.321" transform="translate(0.194 0.194)" fill="#808285"/>
        <g transform="matrix(1, 0, 0, 1, -205.98, -203.72)" filter="url(#Ellipse_32)">
          <circle id="Ellipse_32-3" data-name="Ellipse 32" cx="15.515" cy="15.515" r="15.515" transform="translate(205.98 203.72)" fill="url(#linear-gradient)"/>
        </g>
        <circle id="Ellipse_33" data-name="Ellipse 33" cx="14.739" cy="14.739" r="14.739" transform="translate(0.776 0.776)" fill="url(#linear-gradient-2)"/>
        <g id="Group_14" data-name="Group 14" transform="translate(4.073 4.073)">
          <circle id="Ellipse_34" data-name="Ellipse 34" cx="11.636" cy="11.636" r="11.636" transform="translate(2.989 2.989)" fill="#fff" opacity="0"/>
          <circle id="Ellipse_35" data-name="Ellipse 35" cx="11.624" cy="11.624" r="11.624" transform="translate(2.803 2.803)" fill="#f7f7f7" opacity="0.063"/>
          <circle id="Ellipse_36" data-name="Ellipse 36" cx="11.612" cy="11.612" r="11.612" transform="translate(2.616 2.616)" fill="#efeff0" opacity="0.125"/>
          <circle id="Ellipse_37" data-name="Ellipse 37" cx="11.6" cy="11.6" r="11.6" transform="translate(2.429 2.429)" fill="#e7e8e8" opacity="0.188"/>
          <circle id="Ellipse_38" data-name="Ellipse 38" cx="11.588" cy="11.588" r="11.588" transform="translate(2.242 2.242)" fill="#dfe0e1" opacity="0.25"/>
          <circle id="Ellipse_39" data-name="Ellipse 39" cx="11.576" cy="11.576" r="11.576" transform="translate(2.055 2.055)" fill="#d7d8d9" opacity="0.313"/>
          <circle id="Ellipse_40" data-name="Ellipse 40" cx="11.564" cy="11.564" r="11.564" transform="translate(1.868 1.868)" fill="#cfd0d1" opacity="0.375"/>
          <circle id="Ellipse_41" data-name="Ellipse 41" cx="11.551" cy="11.551" r="11.551" transform="translate(1.682 1.682)" fill="#c7c8ca" opacity="0.438"/>
          <circle id="Ellipse_42" data-name="Ellipse 42" cx="11.539" cy="11.539" r="11.539" transform="translate(1.495 1.495)" fill="#c0c1c2" opacity="0.5"/>
          <circle id="Ellipse_43" data-name="Ellipse 43" cx="11.527" cy="11.527" r="11.527" transform="translate(1.308 1.308)" fill="#b8b9ba" opacity="0.563"/>
          <circle id="Ellipse_44" data-name="Ellipse 44" cx="11.515" cy="11.515" r="11.515" transform="translate(1.121 1.121)" fill="#b0b1b3" opacity="0.625"/>
          <circle id="Ellipse_45" data-name="Ellipse 45" cx="11.503" cy="11.503" r="11.503" transform="translate(0.934 0.934)" fill="#a8a9ab" opacity="0.688"/>
          <circle id="Ellipse_46" data-name="Ellipse 46" cx="11.491" cy="11.491" r="11.491" transform="translate(0.747 0.747)" fill="#a0a1a4" opacity="0.75"/>
          <circle id="Ellipse_47" data-name="Ellipse 47" cx="11.479" cy="11.479" r="11.479" transform="translate(0.561 0.561)" fill="#98999c" opacity="0.813"/>
          <circle id="Ellipse_48" data-name="Ellipse 48" cx="11.467" cy="11.467" r="11.467" transform="translate(0.374 0.374)" fill="#909294" opacity="0.875"/>
          <circle id="Ellipse_49" data-name="Ellipse 49" cx="11.454" cy="11.454" r="11.454" transform="translate(0.187 0.187)" fill="#888a8d" opacity="0.938"/>
          <circle id="Ellipse_50" data-name="Ellipse 50" cx="11.442" cy="11.442" r="11.442" fill="#808285"/>
        </g>
        <circle id="Ellipse_51" data-name="Ellipse 51" cx="11.636" cy="11.636" r="11.636" transform="translate(3.879 3.879)" fill="url(#linear-gradient-3)"/>
        <circle id="Ellipse_52" data-name="Ellipse 52" cx="9.697" cy="9.697" r="9.697" transform="translate(5.818 5.818)" fill="url(#linear-gradient-4)"/>
        <g id="Group_282" data-name="Group 282" transform="translate(9.147 8.967)">
          <rect id="Rectangle_118" data-name="Rectangle 118" width="3.181" height="12.722" transform="translate(5.133 0.394)" fill="#b29b9a"/>
          <rect id="Rectangle_119" data-name="Rectangle 119" width="12.722" height="3.181" transform="translate(0.362 5.165)" fill="#b29b9a"/>
          <g id="Group_281" data-name="Group 281">
            <rect id="Rectangle_116" data-name="Rectangle 116" width="3.181" height="12.722" transform="translate(4.771)" fill="#fff"/>
            <rect id="Rectangle_117" data-name="Rectangle 117" width="12.722" height="3.181" transform="translate(0 4.771)" fill="#fff"/>
          </g>
        </g>
      </g>
      <g id="Group_459" data-name="Group 459" transform="translate(238.853 197.717)">
        <circle id="Ellipse_30-2" data-name="Ellipse 30" cx="15.33" cy="15.33" r="15.33" transform="translate(0.406 0.406)" fill="#86888b" opacity="0.952"/>
        <circle id="Ellipse_31-2" data-name="Ellipse 31" cx="15.321" cy="15.321" r="15.321" transform="translate(0.194 0.194)" fill="#808285"/>
        <g transform="matrix(1, 0, 0, 1, -247.85, -203.72)" filter="url(#Ellipse_32-2)">
          <circle id="Ellipse_32-4" data-name="Ellipse 32" cx="15.515" cy="15.515" r="15.515" transform="translate(247.85 203.72)" fill="url(#linear-gradient)"/>
        </g>
        <circle id="Ellipse_33-2" data-name="Ellipse 33" cx="14.739" cy="14.739" r="14.739" transform="translate(0.776 0.776)" fill="url(#linear-gradient-2)"/>
        <g id="Group_14-2" data-name="Group 14" transform="translate(4.073 4.073)">
          <circle id="Ellipse_34-2" data-name="Ellipse 34" cx="11.636" cy="11.636" r="11.636" transform="translate(2.989 2.989)" fill="#fff" opacity="0"/>
          <circle id="Ellipse_35-2" data-name="Ellipse 35" cx="11.624" cy="11.624" r="11.624" transform="translate(2.803 2.803)" fill="#f7f7f7" opacity="0.063"/>
          <circle id="Ellipse_36-2" data-name="Ellipse 36" cx="11.612" cy="11.612" r="11.612" transform="translate(2.616 2.616)" fill="#efeff0" opacity="0.125"/>
          <circle id="Ellipse_37-2" data-name="Ellipse 37" cx="11.6" cy="11.6" r="11.6" transform="translate(2.429 2.429)" fill="#e7e8e8" opacity="0.188"/>
          <circle id="Ellipse_38-2" data-name="Ellipse 38" cx="11.588" cy="11.588" r="11.588" transform="translate(2.242 2.242)" fill="#dfe0e1" opacity="0.25"/>
          <circle id="Ellipse_39-2" data-name="Ellipse 39" cx="11.576" cy="11.576" r="11.576" transform="translate(2.055 2.055)" fill="#d7d8d9" opacity="0.313"/>
          <circle id="Ellipse_40-2" data-name="Ellipse 40" cx="11.564" cy="11.564" r="11.564" transform="translate(1.868 1.868)" fill="#cfd0d1" opacity="0.375"/>
          <circle id="Ellipse_41-2" data-name="Ellipse 41" cx="11.551" cy="11.551" r="11.551" transform="translate(1.682 1.682)" fill="#c7c8ca" opacity="0.438"/>
          <circle id="Ellipse_42-2" data-name="Ellipse 42" cx="11.539" cy="11.539" r="11.539" transform="translate(1.495 1.495)" fill="#c0c1c2" opacity="0.5"/>
          <circle id="Ellipse_43-2" data-name="Ellipse 43" cx="11.527" cy="11.527" r="11.527" transform="translate(1.308 1.308)" fill="#b8b9ba" opacity="0.563"/>
          <circle id="Ellipse_44-2" data-name="Ellipse 44" cx="11.515" cy="11.515" r="11.515" transform="translate(1.121 1.121)" fill="#b0b1b3" opacity="0.625"/>
          <circle id="Ellipse_45-2" data-name="Ellipse 45" cx="11.503" cy="11.503" r="11.503" transform="translate(0.934 0.934)" fill="#a8a9ab" opacity="0.688"/>
          <circle id="Ellipse_46-2" data-name="Ellipse 46" cx="11.491" cy="11.491" r="11.491" transform="translate(0.747 0.747)" fill="#a0a1a4" opacity="0.75"/>
          <circle id="Ellipse_47-2" data-name="Ellipse 47" cx="11.479" cy="11.479" r="11.479" transform="translate(0.561 0.561)" fill="#98999c" opacity="0.813"/>
          <circle id="Ellipse_48-2" data-name="Ellipse 48" cx="11.467" cy="11.467" r="11.467" transform="translate(0.374 0.374)" fill="#909294" opacity="0.875"/>
          <circle id="Ellipse_49-2" data-name="Ellipse 49" cx="11.454" cy="11.454" r="11.454" transform="translate(0.187 0.187)" fill="#888a8d" opacity="0.938"/>
          <circle id="Ellipse_50-2" data-name="Ellipse 50" cx="11.442" cy="11.442" r="11.442" fill="#808285"/>
        </g>
        <circle id="Ellipse_51-2" data-name="Ellipse 51" cx="11.636" cy="11.636" r="11.636" transform="translate(3.879 3.879)" fill="url(#linear-gradient-3)"/>
        <circle id="Ellipse_52-2" data-name="Ellipse 52" cx="9.697" cy="9.697" r="9.697" transform="translate(5.818 5.818)" fill="url(#linear-gradient-4)"/>
        <g id="Group_282-2" data-name="Group 282" transform="translate(16.024 6.268) rotate(47)">
          <rect id="Rectangle_118-2" data-name="Rectangle 118" width="3.181" height="12.722" transform="translate(5.133 0.394)" fill="#b29b9a"/>
          <rect id="Rectangle_119-2" data-name="Rectangle 119" width="12.722" height="3.181" transform="translate(0.362 5.165)" fill="#b29b9a"/>
          <g id="Group_281-2" data-name="Group 281" transform="translate(0 0)">
            <rect id="Rectangle_116-2" data-name="Rectangle 116" width="3.181" height="12.722" transform="translate(4.771)" fill="#fff"/>
            <rect id="Rectangle_117-2" data-name="Rectangle 117" width="12.722" height="3.181" transform="translate(0 4.771)" fill="#fff"/>
          </g>
        </g>
      </g>
      <text id="Add_the_account_details_for_the_above_eStore_you_selected." data-name="Add the account details for
the above eStore you selected." transform="translate(20.662 210.692)" fill="#58595b" font-size="12" font-family="SegoeUI, Segoe UI"><tspan x="0" y="0">Add the account details for</tspan><tspan x="0" y="14">the above eStore you selected.</tspan></text>
      <path id="Path_437" data-name="Path 437" d="M336.481,181.84a1.851,1.851,0,0,1,0-2.652h0a1.5,1.5,0,0,1,2.33,0l5.51,6.152,5.4-6.152a1.622,1.622,0,0,1,2.444,0h0a2.092,2.092,0,0,1,0,2.652c-2.227,2.548-4.454,5.091-6.68,7.525h0a1.348,1.348,0,0,1-1.165.533,1.552,1.552,0,0,1-1.274-.533h0c-2.222-2.434-4.345-4.977-6.567-7.525Z" transform="translate(-99.795 -143.906)" fill-rule="evenodd" fill="url(#linear-gradient-9)"/>
    </g>
    <g id="mail_1_" data-name="mail (1)" transform="translate(849 579)">
      <g id="Group_607" data-name="Group 607" transform="translate(0 61)">
        <path id="Path_466" data-name="Path 466" d="M25.146,61H2.423A2.427,2.427,0,0,0,0,63.423V79.577A2.427,2.427,0,0,0,2.423,82H25.146a2.427,2.427,0,0,0,2.423-2.423V63.423A2.427,2.427,0,0,0,25.146,61Zm-.335,1.615L13.836,73.591,2.765,62.615ZM1.615,79.242V63.75L9.4,71.463Zm1.142,1.142L10.542,72.6l2.728,2.7a.808.808,0,0,0,1.14,0l2.66-2.66,7.742,7.742Zm23.2-1.142L18.211,71.5l7.742-7.742Z" transform="translate(0 -61)" fill="#58595b" stroke="#58595b" stroke-width="1"/>
      </g>
    </g>
  </g>
</svg>
