<svg xmlns="http://www.w3.org/2000/svg" width="38.193" height="27.138" viewBox="0 0 38.193 27.138">
  <g id="Group_607" data-name="Group 607" transform="translate(-1212.16 -798.818)">
    <g id="Group_16" data-name="Group 16" transform="translate(1249.929 824.199) rotate(180)" opacity="0.8">
      <path id="Path_23" data-name="Path 23" d="M111.361,116.6H79a2.042,2.042,0,0,1,0-4.083h32.365a2.042,2.042,0,1,1,0,4.083Z" transform="translate(-76.954 -101.868)" fill="#a8aaad"/>
      <g id="Group_15" data-name="Group 15" transform="translate(22.001)">
        <path id="Path_24" data-name="Path 24" d="M81.766,136.591l-2.118-2.273L90.857,123.9,79.648,113.482l2.118-2.273L95.415,123.9Z" transform="translate(-79.648 -111.21)" fill="#a8aaad"/>
      </g>
    </g>
    <g id="Group_18" data-name="Group 18" transform="translate(1250.353 825.955) rotate(180)">
      <path id="Path_25" data-name="Path 25" d="M111.308,116.381H78.944a2.042,2.042,0,0,1,0-4.083h32.365a2.042,2.042,0,1,1,0,4.083Z" transform="translate(-76.902 -101.653)" fill="#d41f28"/>
      <g id="Group_17" data-name="Group 17" transform="translate(22.003)">
        <path id="Path_26" data-name="Path 26" d="M81.714,136.376,79.6,134.1l11.209-10.42L79.6,113.267l2.118-2.273,13.649,12.689Z" transform="translate(-79.596 -110.994)" fill="#d41f28"/>
      </g>
    </g>
  </g>
</svg>
