<svg xmlns="http://www.w3.org/2000/svg" width="17.453" height="13.956" viewBox="0 0 17.453 13.956">
  <g id="Group_500" data-name="Group 500" transform="translate(-15.161 -43.073)">
    <path id="Path_176" data-name="Path 176" d="M289.628,38.038H274.713a1.269,1.269,0,0,1,0-2.538h14.916a1.269,1.269,0,1,1,0,2.538Z" transform="translate(-258.283 7.573)" fill="#de252f"/>
    <path id="Path_177" data-name="Path 177" d="M289.628,39.163H274.713a1.269,1.269,0,0,1,0-2.538h14.916a1.269,1.269,0,1,1,0,2.538Z" transform="translate(-258.283 12.158)" fill="#de252f"/>
    <path id="Path_178" data-name="Path 178" d="M289.628,40.288H274.713a1.269,1.269,0,0,1,0-2.538h14.916a1.269,1.269,0,1,1,0,2.538Z" transform="translate(-258.283 16.742)" fill="#de252f"/>
  </g>
</svg>
