<svg xmlns="http://www.w3.org/2000/svg" width="17.896" height="21.1" viewBox="0 0 17.896 21.1">
  <path id="Path_463" data-name="Path 463" d="M759,252.563h1.434a43.612,43.612,0,0,0,3.93,6.589,35.158,35.158,0,0,1,11.41-17.172c-.477-.228-2.353-1.174-2.568-1.288a37.032,37.032,0,0,0-9.26,14.607,38.164,38.164,0,0,1-2.89-6.445c-.262.08-1.572.5-1.979.633.277.7.575,1.389.886,2.073H759a1.124,1.124,0,0,0-1.122,1.123v7.986A1.124,1.124,0,0,0,759,261.792h7.809a1.124,1.124,0,0,0,1.123-1.123v-4.762a.5.5,0,1,0-1,0v4.762a.12.12,0,0,1-.119.12H759a.12.12,0,0,1-.119-.12v-7.986A.12.12,0,0,1,759,252.563Z" transform="translate(-757.877 -240.692)" fill="#fff"/>
</svg>
