<svg xmlns="http://www.w3.org/2000/svg" width="21" height="21" viewBox="0 0 21 21">
  <g id="Group_607" data-name="Group 607" transform="translate(-1738 -990)">
    <path id="Path_467" data-name="Path 467" d="M10,0a10,10,0,0,0,0,20,1.664,1.664,0,0,0,1.667-1.667,1.629,1.629,0,0,0-.433-1.117,1.669,1.669,0,0,1,1.25-2.772h1.961A5.558,5.558,0,0,0,20,8.889C20,3.978,15.522,0,10,0ZM3.889,10A1.667,1.667,0,1,1,5.556,8.333,1.664,1.664,0,0,1,3.889,10ZM7.222,5.556A1.667,1.667,0,1,1,8.889,3.889,1.664,1.664,0,0,1,7.222,5.556Zm5.556,0a1.667,1.667,0,1,1,1.667-1.667A1.664,1.664,0,0,1,12.778,5.556ZM16.111,10a1.667,1.667,0,1,1,1.667-1.667A1.664,1.664,0,0,1,16.111,10Z" transform="translate(1739 991)" fill="#a7a9ac" opacity="0.8"/>
    <path id="Path_466" data-name="Path 466" d="M10,0a10,10,0,0,0,0,20,1.664,1.664,0,0,0,1.667-1.667,1.629,1.629,0,0,0-.433-1.117,1.669,1.669,0,0,1,1.25-2.772h1.961A5.558,5.558,0,0,0,20,8.889C20,3.978,15.522,0,10,0ZM3.889,10A1.667,1.667,0,1,1,5.556,8.333,1.664,1.664,0,0,1,3.889,10ZM7.222,5.556A1.667,1.667,0,1,1,8.889,3.889,1.664,1.664,0,0,1,7.222,5.556Zm5.556,0a1.667,1.667,0,1,1,1.667-1.667A1.664,1.664,0,0,1,12.778,5.556ZM16.111,10a1.667,1.667,0,1,1,1.667-1.667A1.664,1.664,0,0,1,16.111,10Z" transform="translate(1738 990)" fill="#fff"/>
  </g>
</svg>
