<svg id="Group_355" data-name="Group 355" xmlns="http://www.w3.org/2000/svg" width="13.753" height="19.915" viewBox="0 0 13.753 19.915">
  <g id="Group_354" data-name="Group 354">
    <path id="Path_366" data-name="Path 366" d="M373.423,672.105H384.4l1.123-15.478H372.3Zm9.251-13.824a.358.358,0,0,1,.393-.3.343.343,0,0,1,.354.337l-.717,11.873a.358.358,0,0,1-.393.3.344.344,0,0,1-.354-.338Zm-2.843.1a.353.353,0,0,1,.38-.316.348.348,0,0,1,.369.326l-.2,11.784a.354.354,0,0,1-.38.316.349.349,0,0,1-.368-.326Zm-2.352-.316a.353.353,0,0,1,.38.316l.205,11.785a.349.349,0,0,1-.369.326.354.354,0,0,1-.38-.316l-.2-11.784A.348.348,0,0,1,377.479,658.065Zm-2.651-.087a.358.358,0,0,1,.393.3l.717,11.872a.344.344,0,0,1-.354.338.357.357,0,0,1-.393-.3l-.718-11.873A.344.344,0,0,1,374.828,657.977Z" transform="translate(-372.037 -652.19)" fill="#fff"/>
    <path id="Path_367" data-name="Path 367" d="M384.134,640.89h-3.992c-.094-.717-.968-1.28-2.03-1.28s-1.936.563-2.03,1.28H372.09a.815.815,0,0,0-.855.77v.746a.816.816,0,0,0,.855.77h12.044a.816.816,0,0,0,.854-.77v-.746A.815.815,0,0,0,384.134,640.89Zm-7.221,0a1.537,1.537,0,0,1,2.4,0Z" transform="translate(-371.235 -639.61)" fill="#fff"/>
  </g>
</svg>
