<svg id="Group_355" data-name="Group 355" xmlns="http://www.w3.org/2000/svg" width="15.842" height="22.94" viewBox="0 0 15.842 22.94">
  <g id="Group_354" data-name="Group 354">
    <path id="Path_366" data-name="Path 366" d="M373.594,674.456h12.648l1.293-17.829H372.3Zm10.657-15.923a.412.412,0,0,1,.453-.351.4.4,0,0,1,.408.388l-.826,13.676a.412.412,0,0,1-.453.35.4.4,0,0,1-.408-.389Zm-3.275.115a.407.407,0,0,1,.437-.364.4.4,0,0,1,.424.375l-.236,13.574a.408.408,0,0,1-.438.364.4.4,0,0,1-.424-.375Zm-2.71-.364a.406.406,0,0,1,.438.364l.236,13.575a.4.4,0,0,1-.425.375.407.407,0,0,1-.437-.364l-.236-13.574A.4.4,0,0,1,378.265,658.283Zm-3.054-.1a.412.412,0,0,1,.453.351l.827,13.675a.4.4,0,0,1-.408.389.412.412,0,0,1-.453-.35l-.827-13.676A.4.4,0,0,1,375.211,658.182Z" transform="translate(-371.997 -651.516)" fill="#58595b"/>
    <path id="Path_367" data-name="Path 367" d="M386.093,641.085h-4.6c-.108-.826-1.115-1.475-2.338-1.475s-2.23.649-2.338,1.475h-4.6a.939.939,0,0,0-.984.887v.859a.94.94,0,0,0,.984.887h13.874a.94.94,0,0,0,.984-.887v-.859A.939.939,0,0,0,386.093,641.085Zm-8.318,0a1.771,1.771,0,0,1,2.761,0Z" transform="translate(-371.235 -639.61)" fill="#58595b"/>
  </g>
</svg>
