<svg xmlns="http://www.w3.org/2000/svg" xmlns:xlink="http://www.w3.org/1999/xlink" width="30.826" height="20.769" viewBox="0 0 30.826 20.769">
  <defs>
    <linearGradient id="linear-gradient" x1="1" y1="0.5" x2="1" y2="0.5" gradientUnits="objectBoundingBox">
      <stop offset="0" stop-color="#58595b"/>
      <stop offset="1" stop-color="#58595b"/>
    </linearGradient>
  </defs>
  <path id="Path_440" data-name="Path 440" d="M336.953,184.545a3.412,3.412,0,0,1,0-4.889h0a2.766,2.766,0,0,1,4.3,0L351.409,191l9.959-11.343a2.991,2.991,0,0,1,4.507,0h0a3.856,3.856,0,0,1,0,4.889c-4.106,4.7-8.211,9.386-12.317,13.873h0a2.485,2.485,0,0,1-2.148.984,2.861,2.861,0,0,1-2.349-.984h0c-4.1-4.488-8.011-9.176-12.107-13.873Z" transform="translate(-335.922 -178.633)" fill-rule="evenodd" fill="url(#linear-gradient)"/>
</svg>
