<svg xmlns="http://www.w3.org/2000/svg" xmlns:xlink="http://www.w3.org/1999/xlink" width="26.639" height="17.949" viewBox="0 0 26.639 17.949">
  <defs>
    <linearGradient id="linear-gradient" y1="0.5" x2="1" y2="0.5" gradientUnits="objectBoundingBox">
      <stop offset="0" stop-color="#df1a22"/>
      <stop offset="1" stop-color="#c02632"/>
    </linearGradient>
  </defs>
  <path id="Path_459" data-name="Path 459" d="M336.813,183.742a2.949,2.949,0,0,1,0-4.225h0a2.39,2.39,0,0,1,3.713,0l8.779,9.8,8.606-9.8a2.585,2.585,0,0,1,3.894,0h0a3.333,3.333,0,0,1,0,4.225c-3.548,4.06-7.1,8.111-10.644,11.989h0a2.147,2.147,0,0,1-1.857.85,2.473,2.473,0,0,1-2.03-.85h0c-3.54-3.878-6.923-7.929-10.463-11.989Z" transform="translate(-335.922 -178.633)" fill-rule="evenodd" fill="url(#linear-gradient)"/>
</svg>
