<svg xmlns="http://www.w3.org/2000/svg" xmlns:xlink="http://www.w3.org/1999/xlink" width="37" height="33" viewBox="0 0 37 33">
  <defs>
    <clipPath id="clip-Artboard_3">
      <rect width="37" height="33"/>
    </clipPath>
  </defs>
  <g id="Artboard_3" data-name="Artboard – 3" clip-path="url(#clip-Artboard_3)">
    <g id="mail_1_" data-name="mail (1)" transform="translate(1 14)">
      <g id="Group_607" data-name="Group 607" transform="translate(0 -11)">
        <path id="Path_466" data-name="Path 466" d="M31.924,61H3.076A3.081,3.081,0,0,0,0,64.076V84.584A3.081,3.081,0,0,0,3.076,87.66H31.924A3.081,3.081,0,0,0,35,84.584V64.076A3.081,3.081,0,0,0,31.924,61ZM31.5,63.051,17.565,76.985,3.511,63.051ZM2.051,84.159V64.491l9.876,9.792Zm1.45,1.45,9.883-9.883,3.463,3.433a1.025,1.025,0,0,0,1.447,0L21.67,75.78l9.83,9.829Zm29.448-1.45L23.12,74.33l9.829-9.83Z" transform="translate(0 -61)" fill="#58595b" stroke="#58595b" stroke-width="1"/>
      </g>
    </g>
  </g>
</svg>
