<svg xmlns="http://www.w3.org/2000/svg" width="18.933" height="21" viewBox="0 0 18.933 21">
  <g id="Group_609" data-name="Group 609" transform="translate(-1743.907 -999.073)">
    <g id="Group_500" data-name="Group 500" transform="translate(1731 957)" opacity="0.8">
      <path id="Path_150" data-name="Path 150" d="M208.387,38.107H193.061a1.3,1.3,0,0,1,0-2.607h15.326a1.3,1.3,0,0,1,0,2.607Z" transform="translate(-177.85 7.573)" fill="#a7a9ac"/>
      <path id="Path_151" data-name="Path 151" d="M208.387,39.232H193.061a1.3,1.3,0,0,1,0-2.607h15.326a1.3,1.3,0,0,1,0,2.607Z" transform="translate(-177.85 12.315)" fill="#a7a9ac"/>
      <path id="Path_152" data-name="Path 152" d="M208.387,40.357H193.061a1.3,1.3,0,0,1,0-2.607h15.326a1.3,1.3,0,0,1,0,2.607Z" transform="translate(-177.85 17.057)" fill="#a7a9ac"/>
      <path id="Path_445" data-name="Path 445" d="M208.387,40.357H193.061a1.3,1.3,0,0,1,0-2.607h15.326a1.3,1.3,0,0,1,0,2.607Z" transform="translate(-177.85 22.716)" fill="#a7a9ac"/>
    </g>
    <g id="Group_608" data-name="Group 608" transform="translate(1730 956)">
      <path id="Path_150-2" data-name="Path 150" d="M208.387,38.107H193.061a1.3,1.3,0,0,1,0-2.607h15.326a1.3,1.3,0,0,1,0,2.607Z" transform="translate(-177.85 7.573)" fill="#fff"/>
      <path id="Path_151-2" data-name="Path 151" d="M208.387,39.232H193.061a1.3,1.3,0,0,1,0-2.607h15.326a1.3,1.3,0,0,1,0,2.607Z" transform="translate(-177.85 12.315)" fill="#fff"/>
      <path id="Path_152-2" data-name="Path 152" d="M208.387,40.357H193.061a1.3,1.3,0,0,1,0-2.607h15.326a1.3,1.3,0,0,1,0,2.607Z" transform="translate(-177.85 17.057)" fill="#fff"/>
      <path id="Path_445-2" data-name="Path 445" d="M208.387,40.357H193.061a1.3,1.3,0,0,1,0-2.607h15.326a1.3,1.3,0,0,1,0,2.607Z" transform="translate(-177.85 22.716)" fill="#fff"/>
    </g>
  </g>
</svg>
