<svg id="Group_480" data-name="Group 480" xmlns="http://www.w3.org/2000/svg" width="23.536" height="33.622" viewBox="0 0 23.536 33.622">
  <path id="Path_7" data-name="Path 7" d="M60.512,120.205H46.562a4.79,4.79,0,0,1-4.789-4.789V103.807a4.8,4.8,0,0,1,4.789-4.8h13.95a4.8,4.8,0,0,1,4.8,4.8v11.609A4.8,4.8,0,0,1,60.512,120.205Zm-13.95-17.1a.7.7,0,0,0-.7.7v11.609a.7.7,0,0,0,.7.7h13.95a.7.7,0,0,0,.7-.7V103.807a.7.7,0,0,0-.7-.7Z" transform="translate(-41.773 -86.583)" fill="#58595b"/>
  <path id="Path_8" data-name="Path 8" d="M46.074,111.966H41.981v-4.413a10.061,10.061,0,1,1,20.123,0H58.01a5.968,5.968,0,1,0-11.936,0Z" transform="translate(-40.278 -97.492)" fill="#58595b"/>
</svg>
