<svg xmlns="http://www.w3.org/2000/svg" xmlns:xlink="http://www.w3.org/1999/xlink" width="75.21" height="75.21" viewBox="0 0 75.21 75.21">
  <defs>
    <linearGradient id="linear-gradient" y1="0.5" x2="1" y2="0.5" gradientUnits="objectBoundingBox">
      <stop offset="0" stop-color="#fff"/>
      <stop offset="1" stop-color="#d1d3d4"/>
    </linearGradient>
    <filter id="Ellipse_32" x="0" y="0" width="75.21" height="75.21" filterUnits="userSpaceOnUse">
      <feOffset dy="3" input="SourceAlpha"/>
      <feGaussianBlur stdDeviation="3" result="blur"/>
      <feFlood flood-opacity="0.549"/>
      <feComposite operator="in" in2="blur"/>
      <feComposite in="SourceGraphic"/>
    </filter>
    <linearGradient id="linear-gradient-2" y1="0.5" x2="1" y2="0.5" gradientUnits="objectBoundingBox">
      <stop offset="0" stop-color="#d1d3d4"/>
      <stop offset="1" stop-color="#fff"/>
    </linearGradient>
    <linearGradient id="linear-gradient-3" y1="0.5" x2="1" y2="0.5" gradientUnits="objectBoundingBox">
      <stop offset="0" stop-color="#df1a22"/>
      <stop offset="1" stop-color="#c02632"/>
    </linearGradient>
    <linearGradient id="linear-gradient-4" y1="0.5" x2="1" y2="0.5" gradientUnits="objectBoundingBox">
      <stop offset="0" stop-color="#de404c"/>
      <stop offset="1" stop-color="#e56b5a"/>
    </linearGradient>
  </defs>
  <g id="Group_492" data-name="Group 492" transform="translate(9 6)">
    <circle id="Ellipse_30" data-name="Ellipse 30" cx="28.265" cy="28.265" r="28.265" transform="translate(0.749 0.749)" fill="#86888b" opacity="0.952"/>
    <circle id="Ellipse_31" data-name="Ellipse 31" cx="28.248" cy="28.248" r="28.248" transform="translate(0.357 0.358)" fill="#808285"/>
    <g transform="matrix(1, 0, 0, 1, -9, -6)" filter="url(#Ellipse_32)">
      <circle id="Ellipse_32-2" data-name="Ellipse 32" cx="28.605" cy="28.605" r="28.605" transform="translate(9 6)" fill="url(#linear-gradient)"/>
    </g>
    <circle id="Ellipse_33" data-name="Ellipse 33" cx="27.175" cy="27.175" r="27.175" transform="translate(1.43 1.43)" fill="url(#linear-gradient-2)"/>
    <g id="Group_14" data-name="Group 14" transform="translate(7.509 7.509)">
      <circle id="Ellipse_34" data-name="Ellipse 34" cx="21.454" cy="21.454" r="21.454" transform="translate(5.512 5.512)" fill="#fff" opacity="0"/>
      <circle id="Ellipse_35" data-name="Ellipse 35" cx="21.432" cy="21.432" r="21.432" transform="translate(5.167 5.167)" fill="#f7f7f7" opacity="0.063"/>
      <circle id="Ellipse_36" data-name="Ellipse 36" cx="21.409" cy="21.409" r="21.409" transform="translate(4.823 4.823)" fill="#efeff0" opacity="0.125"/>
      <circle id="Ellipse_37" data-name="Ellipse 37" cx="21.387" cy="21.387" r="21.387" transform="translate(4.478 4.478)" fill="#e7e8e8" opacity="0.188"/>
      <circle id="Ellipse_38" data-name="Ellipse 38" cx="21.364" cy="21.364" r="21.364" transform="translate(4.134 4.134)" fill="#dfe0e1" opacity="0.25"/>
      <circle id="Ellipse_39" data-name="Ellipse 39" cx="21.342" cy="21.342" r="21.342" transform="translate(3.789 3.789)" fill="#d7d8d9" opacity="0.313"/>
      <circle id="Ellipse_40" data-name="Ellipse 40" cx="21.32" cy="21.32" r="21.32" transform="translate(3.445 3.445)" fill="#cfd0d1" opacity="0.375"/>
      <circle id="Ellipse_41" data-name="Ellipse 41" cx="21.297" cy="21.297" r="21.297" transform="translate(3.1 3.1)" fill="#c7c8ca" opacity="0.438"/>
      <circle id="Ellipse_42" data-name="Ellipse 42" cx="21.275" cy="21.275" r="21.275" transform="translate(2.756 2.756)" fill="#c0c1c2" opacity="0.5"/>
      <circle id="Ellipse_43" data-name="Ellipse 43" cx="21.253" cy="21.253" r="21.253" transform="translate(2.411 2.411)" fill="#b8b9ba" opacity="0.563"/>
      <circle id="Ellipse_44" data-name="Ellipse 44" cx="21.23" cy="21.23" r="21.23" transform="translate(2.067 2.067)" fill="#b0b1b3" opacity="0.625"/>
      <circle id="Ellipse_45" data-name="Ellipse 45" cx="21.208" cy="21.208" r="21.208" transform="translate(1.722 1.722)" fill="#a8a9ab" opacity="0.688"/>
      <circle id="Ellipse_46" data-name="Ellipse 46" cx="21.186" cy="21.186" r="21.186" transform="translate(1.378 1.378)" fill="#a0a1a4" opacity="0.75"/>
      <circle id="Ellipse_47" data-name="Ellipse 47" cx="21.163" cy="21.163" r="21.163" transform="translate(1.033 1.033)" fill="#98999c" opacity="0.813"/>
      <circle id="Ellipse_48" data-name="Ellipse 48" cx="21.141" cy="21.141" r="21.141" transform="translate(0.689 0.689)" fill="#909294" opacity="0.875"/>
      <circle id="Ellipse_49" data-name="Ellipse 49" cx="21.119" cy="21.119" r="21.119" transform="translate(0.344 0.344)" fill="#888a8d" opacity="0.938"/>
      <circle id="Ellipse_50" data-name="Ellipse 50" cx="21.096" cy="21.096" r="21.096" fill="#808285"/>
    </g>
    <circle id="Ellipse_51" data-name="Ellipse 51" cx="21.454" cy="21.454" r="21.454" transform="translate(7.151 7.151)" fill="url(#linear-gradient-3)"/>
    <circle id="Ellipse_52" data-name="Ellipse 52" cx="17.878" cy="17.878" r="17.878" transform="translate(10.727 10.727)" fill="url(#linear-gradient-4)"/>
    <g id="Group_282" data-name="Group 282" transform="translate(16.864 16.533)">
      <rect id="Rectangle_118" data-name="Rectangle 118" width="5.864" height="23.456" transform="translate(9.464 0.727)" fill="#b29b9a"/>
      <rect id="Rectangle_119" data-name="Rectangle 119" width="23.456" height="5.864" transform="translate(0.668 9.523)" fill="#b29b9a"/>
      <g id="Group_281" data-name="Group 281" transform="translate(0 0)">
        <rect id="Rectangle_116" data-name="Rectangle 116" width="5.864" height="23.456" transform="translate(8.796 0)" fill="#fff"/>
        <rect id="Rectangle_117" data-name="Rectangle 117" width="23.456" height="5.864" transform="translate(0 8.796)" fill="#fff"/>
      </g>
    </g>
  </g>
</svg>
