<svg xmlns="http://www.w3.org/2000/svg" width="18" height="19.218" viewBox="0 0 18 19.218">
  <g id="Group_611" data-name="Group 611" transform="translate(-1747 -999)">
    <g id="floppy-disk" transform="translate(1747.874 999.874)">
      <path id="Path_468" data-name="Path 468" d="M111,276.231h10.39V271H111Zm1.756-4.013h1.72a.537.537,0,1,1,0,1.075h-1.72a.537.537,0,1,1,0-1.075Z" transform="translate(-107.632 -261.29)" fill="#a2a2a3"/>
      <path id="Path_469" data-name="Path 469" d="M180.8,0h-1.218V3.44a.537.537,0,1,1-1.075,0V0H175V5.2h5.8Z" transform="translate(-169.339)" fill="#a2a2a3"/>
      <path id="Path_470" data-name="Path 470" d="M33.97,4.781,29.54.316V5.733A.537.537,0,0,1,29,6.27H22.124a.537.537,0,0,1-.537-.537V0H18.075A1.076,1.076,0,0,0,17,1.075V17.27a1.076,1.076,0,0,0,1.075,1.075H33.051a1.076,1.076,0,0,0,1.075-1.075V5.159A.537.537,0,0,0,33.97,4.781Zm-2.137,10.7a.537.537,0,0,1-.537.537H19.831a.537.537,0,0,1-.537-.537V9.172a.537.537,0,0,1,.537-.537H31.3a.537.537,0,0,1,.537.537Z" transform="translate(-17)" fill="#a2a2a3"/>
    </g>
    <g id="floppy-disk-2" data-name="floppy-disk" transform="translate(1747 999)">
      <path id="Path_468-2" data-name="Path 468" d="M111,276.231h10.39V271H111Zm1.756-4.013h1.72a.537.537,0,1,1,0,1.075h-1.72a.537.537,0,1,1,0-1.075Z" transform="translate(-107.632 -261.29)" fill="#fff"/>
      <path id="Path_469-2" data-name="Path 469" d="M180.8,0h-1.218V3.44a.537.537,0,1,1-1.075,0V0H175V5.2h5.8Z" transform="translate(-169.339)" fill="#fff"/>
      <path id="Path_470-2" data-name="Path 470" d="M33.97,4.781,29.54.316V5.733A.537.537,0,0,1,29,6.27H22.124a.537.537,0,0,1-.537-.537V0H18.075A1.076,1.076,0,0,0,17,1.075V17.27a1.076,1.076,0,0,0,1.075,1.075H33.051a1.076,1.076,0,0,0,1.075-1.075V5.159A.537.537,0,0,0,33.97,4.781Zm-2.137,10.7a.537.537,0,0,1-.537.537H19.831a.537.537,0,0,1-.537-.537V9.172a.537.537,0,0,1,.537-.537H31.3a.537.537,0,0,1,.537.537Z" transform="translate(-17)" fill="#fff"/>
    </g>
  </g>
</svg>
