<svg xmlns="http://www.w3.org/2000/svg" width="17.311" height="17.58" viewBox="0 0 17.311 17.58">
  <g id="Group_607" data-name="Group 607" transform="translate(-1689.465 -1000.628)">
    <g id="Group_229" data-name="Group 229" transform="translate(1689.949 1001.42)" opacity="0.8">
      <path id="Path_232" data-name="Path 232" d="M238.751,290.416a5.977,5.977,0,1,1,4.193-1.751A5.911,5.911,0,0,1,238.751,290.416Zm0-11.07a5.094,5.094,0,1,0,3.634,1.492A5.1,5.1,0,0,0,238.751,279.346Z" transform="translate(-232.749 -278.479)" fill="#a8aaad"/>
      <path id="Path_233" data-name="Path 233" d="M240.48,286.656a.436.436,0,0,1-.309-.134l-6.218-6.252a.432.432,0,0,1,.175-.592.416.416,0,0,1,.384-.017l6.277,6.252a.428.428,0,0,1,0,.617A.465.465,0,0,1,240.48,286.656Z" transform="translate(-224.317 -270.085)" fill="#a8aaad"/>
      <path id="Path_234" data-name="Path 234" d="M238.7,285.08a.68.68,0,0,1-.459-.183l-3.918-3.918a.654.654,0,0,1,.925-.925h0l3.909,3.918a.639.639,0,0,1,.025.917.654.654,0,0,1-.483.2Z" transform="translate(-222.541 -268.301)" fill="#a8aaad"/>
    </g>
    <path id="Path_235" data-name="Path 235" d="M238.659,290.321a5.977,5.977,0,1,1,4.218-1.751A5.973,5.973,0,0,1,238.659,290.321Zm0-11.07a5.094,5.094,0,1,0,3.593,1.492,5.1,5.1,0,0,0-3.593-1.492Z" transform="translate(1456.774 722.244)" fill="#fff"/>
    <path id="Path_236" data-name="Path 236" d="M240.508,286.62a.422.422,0,0,1-.308-.134l-6.268-6.252a.433.433,0,0,1,.042-.608.442.442,0,0,1,.575,0l6.26,6.252a.428.428,0,0,1-.008.617A.488.488,0,0,1,240.508,286.62Z" transform="translate(1465.096 730.579)" fill="#fff"/>
    <path id="Path_237" data-name="Path 237" d="M238.65,285a.658.658,0,0,1-.458-.191l-3.918-3.918a.657.657,0,0,1-.008-.926.649.649,0,0,1,.925,0h0l3.918,3.91a.657.657,0,0,1,.025.925.688.688,0,0,1-.483.2Z" transform="translate(1466.954 732.431)" fill="#fff"/>
  </g>
</svg>
