<svg xmlns="http://www.w3.org/2000/svg" width="21.172" height="20.233" viewBox="0 0 21.172 20.233">
  <g id="Group_607" data-name="Group 607" transform="translate(-1572.18 -1000.361)">
    <path id="Path_461" data-name="Path 461" d="M229.472,279.278l1.917,5.51,5.835.117c1.634.033,1.909.867.6,1.859l-4.651,3.526,1.692,5.585c.475,1.567-.233,2.084-1.576,1.142l-4.793-3.334-4.793,3.334c-1.342.942-2.05.425-1.575-1.142l1.692-5.585-4.651-3.526c-1.309-.992-1.034-1.826.6-1.859l5.835-.117,1.917-5.51C228.063,277.728,228.931,277.728,229.472,279.278Z" transform="translate(1354.7 723.106)" fill="#a7a9ac" opacity="0.8"/>
    <path id="Path_462" data-name="Path 462" d="M229.365,279.169l1.917,5.518,5.843.117c1.634.033,1.9.867.6,1.851l-4.651,3.526,1.692,5.593c.467,1.567-.233,2.075-1.575,1.142l-4.793-3.334-4.793,3.334c-1.342.933-2.051.425-1.576-1.142l1.692-5.593-4.66-3.526c-1.3-.984-1.034-1.817.608-1.851l5.835-.117,1.917-5.518C227.956,277.627,228.831,277.627,229.365,279.169Z" transform="translate(1353.942 722.349)" fill="#fff"/>
  </g>
</svg>
