<svg xmlns="http://www.w3.org/2000/svg" width="22.409" height="19" viewBox="0 0 22.409 19">
  <g id="Group_38" data-name="Group 38" transform="translate(-4612.2 -18462.852)">
    <path id="Path_157" data-name="Path 157" d="M52.005,33.538H41.019a1.5,1.5,0,0,1,0-3H52.005a1.5,1.5,0,0,1,0,3Z" transform="translate(4581.105 18433.311)" opacity="0.2"/>
    <path id="Path_158" data-name="Path 158" d="M52.005,41.438H41.019a1.5,1.5,0,0,1,0-3H52.005a1.5,1.5,0,1,1,0,3Z" transform="translate(4581.105 18430.406)" opacity="0.2"/>
    <path id="Path_159" data-name="Path 159" d="M52.005,49.328H41.019a1.5,1.5,0,0,1,0-3H52.005a1.5,1.5,0,0,1,0,3Z" transform="translate(4581.105 18427.508)" opacity="0.2"/>
    <path id="Path_160" data-name="Path 160" d="M52.005,57.258H41.019a1.5,1.5,0,0,1,0-3H52.005a1.5,1.5,0,0,1,0,3Z" transform="translate(4581.105 18424.594)" opacity="0.2"/>
    <path id="Path_161" data-name="Path 161" d="M32.271,33.538H29.279a1.5,1.5,0,0,1,0-3h3a1.5,1.5,0,0,1,0,3Z" transform="translate(4585.419 18433.311)" opacity="0.2"/>
    <path id="Path_162" data-name="Path 162" d="M32.271,41.438H29.279a1.5,1.5,0,1,1,0-3h3a1.5,1.5,0,1,1,0,3Z" transform="translate(4585.419 18430.406)" opacity="0.2"/>
    <path id="Path_163" data-name="Path 163" d="M32.271,49.328H29.279a1.5,1.5,0,1,1,0-3h3a1.5,1.5,0,1,1,0,3Z" transform="translate(4585.419 18427.508)" opacity="0.2"/>
    <path id="Path_164" data-name="Path 164" d="M32.271,57.258H29.279a1.5,1.5,0,0,1,0-3h3a1.5,1.5,0,1,1,0,3Z" transform="translate(4585.419 18424.594)" opacity="0.2"/>
    <path id="Path_165" data-name="Path 165" d="M50.425,31.958H39.439a1.5,1.5,0,0,1,0-3H50.425a1.5,1.5,0,1,1,0,3Z" transform="translate(4581.686 18433.891)" fill="#fff"/>
    <path id="Path_166" data-name="Path 166" d="M50.425,39.858H39.439a1.5,1.5,0,0,1,0-3H50.425a1.5,1.5,0,1,1,0,3Z" transform="translate(4581.686 18430.986)" fill="#fff"/>
    <path id="Path_167" data-name="Path 167" d="M50.425,47.748H39.439a1.5,1.5,0,1,1,0-3H50.425a1.5,1.5,0,1,1,0,3Z" transform="translate(4581.686 18428.088)" fill="#fff"/>
    <path id="Path_168" data-name="Path 168" d="M50.425,55.648H39.439a1.5,1.5,0,1,1,0-3H50.425a1.5,1.5,0,1,1,0,3Z" transform="translate(4581.686 18425.184)" fill="#fff"/>
    <path id="Path_169" data-name="Path 169" d="M30.7,31.958h-3a1.5,1.5,0,0,1,0-3h3a1.5,1.5,0,1,1,0,3Z" transform="translate(4586 18433.891)" fill="#fff"/>
    <path id="Path_170" data-name="Path 170" d="M30.7,39.858h-3a1.5,1.5,0,1,1,0-3h3a1.5,1.5,0,1,1,0,3Z" transform="translate(4586 18430.986)" fill="#fff"/>
    <path id="Path_171" data-name="Path 171" d="M30.7,47.748h-3a1.5,1.5,0,1,1,0-3h3a1.5,1.5,0,1,1,0,3Z" transform="translate(4586 18428.088)" fill="#fff"/>
    <path id="Path_172" data-name="Path 172" d="M30.7,55.648h-3a1.5,1.5,0,1,1,0-3h3a1.5,1.5,0,1,1,0,3Z" transform="translate(4586 18425.184)" fill="#fff"/>
  </g>
</svg>
